<svg xmlns="http://www.w3.org/2000/svg" width="28" height="28.122" viewBox="0 0 28 28.122">
  <g id="whatsapp" transform="translate(0 0.001)">
    <path id="Path_3858" data-name="Path 3858" d="M.6,28.122a.6.6,0,0,1-.577-.756L1.85,20.689a13.945,13.945,0,1,1,12.207,7.2H14.05A13.972,13.972,0,0,1,7.6,26.306L.75,28.1a.6.6,0,0,1-.152.02Zm0,0" transform="translate(0)" fill="#e5e5e5"/>
    <path id="Path_3859" data-name="Path 3859" d="M10.894,37.82l1.893-6.914a13.346,13.346,0,1,1,11.565,6.683h-.006a13.334,13.334,0,0,1-6.377-1.624Zm7.4-4.271.405.24a11.077,11.077,0,0,0,5.646,1.546h0a11.091,11.091,0,1,0-9.4-5.2l.264.42L14.1,34.65Zm0,0" transform="translate(-10.296 -10.297)" fill="#fff"/>
    <path id="Path_3860" data-name="Path 3860" d="M19.344,45.376,21.172,38.7a12.884,12.884,0,1,1,11.164,6.451H32.33a12.881,12.881,0,0,1-6.156-1.568Zm0,0" transform="translate(-18.281 -18.319)" fill="#64b161"/>
    <g id="Group_341" data-name="Group 341" transform="translate(0.599 0.598)">
      <path id="Path_3861" data-name="Path 3861" d="M10.894,37.82l1.893-6.914a13.346,13.346,0,1,1,11.565,6.683h-.006a13.334,13.334,0,0,1-6.377-1.624Zm7.4-4.271.405.24a11.077,11.077,0,0,0,5.646,1.546h0a11.091,11.091,0,1,0-9.4-5.2l.264.42L14.1,34.65Zm0,0" transform="translate(-10.894 -10.895)" fill="#fff"/>
      <path id="Path_3862" data-name="Path 3862" d="M135.892,142.2c-.25-.555-.513-.566-.751-.576-.194-.008-.417-.008-.639-.008a1.225,1.225,0,0,0-.889.417,3.738,3.738,0,0,0-1.167,2.781,6.486,6.486,0,0,0,1.362,3.449c.167.222,2.307,3.7,5.7,5.034,2.817,1.111,3.39.89,4,.834a3.368,3.368,0,0,0,2.251-1.585,2.785,2.785,0,0,0,.195-1.586c-.083-.139-.306-.222-.639-.389s-1.973-.974-2.279-1.085-.528-.167-.75.167-.861,1.084-1.056,1.307-.389.251-.723.084a9.117,9.117,0,0,1-2.682-1.655,10.048,10.048,0,0,1-1.855-2.309c-.194-.333,0-.5.147-.68a10.056,10.056,0,0,0,.833-1.14.615.615,0,0,0-.028-.584C136.836,144.506,136.188,142.857,135.892,142.2Zm0,0" transform="translate(-125.769 -134.433)" fill="#fff" fill-rule="evenodd"/>
    </g>
  </g>
</svg>
